#tb 0: 1/25
0,          0,          0,        1,   663552, 0x8a55d4d9
0,          1,          1,        1,   663552, 0xf4c4d42d
0,          2,          2,        1,   663552, 0x291cd441
0,          3,          3,        1,   663552, 0xce5bd56b
0,          4,          4,        1,   663552, 0x1dc0d637
0,          5,          5,        1,   663552, 0x4676d387
0,          6,          6,        1,   663552, 0x8064d607
0,          7,          7,        1,   663552, 0x1981d54f
0,          8,          8,        1,   663552, 0x8fffd4a3
0,          9,          9,        1,   663552, 0x5041d2f7
0,         10,         10,        1,   663552, 0x03bbd401
0,         11,         11,        1,   663552, 0x965bd2f3
0,         12,         12,        1,   663552, 0x0d39d27d
0,         13,         13,        1,   663552, 0xad39d1fb
0,         14,         14,        1,   663552, 0x1809d195
0,         15,         15,        1,   663552, 0xe083cf2f
0,         16,         16,        1,   663552, 0x0d6fd3b3
0,         17,         17,        1,   663552, 0x3a8ed3f3
0,         18,         18,        1,   663552, 0xbbb5d00d
0,         19,         19,        1,   663552, 0xe6ead0df
0,         20,         20,        1,   663552, 0xf5dcd35f
0,         21,         21,        1,   663552, 0x9cd9d32b
0,         22,         22,        1,   663552, 0xcb91d1b9
0,         23,         23,        1,   663552, 0x5640cfd7
0,         24,         24,        1,   663552, 0x5370d285
0,         25,         25,        1,   663552, 0xd894d1dd
0,         26,         26,        1,   663552, 0xace4ce65
0,         27,         27,        1,   663552, 0x6e15ce17
0,         28,         28,        1,   663552, 0xd21cce21
0,         29,         29,        1,   663552, 0xec1ecd83
0,         30,         30,        1,   663552, 0x9852ce0f
0,         31,         31,        1,   663552, 0xe488cba3
0,         32,         32,        1,   663552, 0x2e15cbed
0,         33,         33,        1,   663552, 0x5e59ca97
0,         34,         34,        1,   663552, 0x7cefcd7d
0,         35,         35,        1,   663552, 0xcb99ccfb
0,         36,         36,        1,   663552, 0xce32cf29
0,         37,         37,        1,   663552, 0x7fb8ceef
0,         38,         38,        1,   663552, 0x4014d18f
0,         39,         39,        1,   663552, 0x224dd381
0,         40,         40,        1,   663552, 0x5347d125
0,         41,         41,        1,   663552, 0xec83ce79
0,         42,         42,        1,   663552, 0x4d24ce8b
0,         43,         43,        1,   663552, 0xfdc5ccbd
0,         44,         44,        1,   663552, 0x592cd18b
0,         45,         45,        1,   663552, 0xff06d43b
0,         46,         46,        1,   663552, 0x7f69d4ef
0,         47,         47,        1,   663552, 0x1607d3f1
0,         48,         48,        1,   663552, 0x33e0d211
0,         49,         49,        1,   663552, 0xe1b1d2cd
